# xmcd
#
# Track frame offsets:
#	150
#	16624
#	40278
#	59691
#	86663
#	103884
#	118180
#	132047
#	147468
#	167292
#	183848
#	201727
#	216865
#
# Disc length: 3144 seconds
# Revision: 0
# Processed by: cddbd v1.5.2PL0 Copyright (c) Steve Scherf et al.
# Submitted via: dBpowerAMP V12.0
#
DISCID=be0c460d
DTITLE=Jefferson Ross - Dogwood Cats
DYEAR=2015
DGENRE=Folk
TTITLE0=Dogwood Cats
TTITLE1=Arvin
TTITLE2=Slap It On
TTITLE3=Confederate Jasmine
TTITLE4=Sore Fingertips
TTITLE5=Brother Will
TTITLE6=Not The Thunder
TTITLE7=Good Morning, Daniel
TTITLE8=Trouble Is
TTITLE9=Closed Minded People
TTITLE10=Great Big Garden
TTITLE11=Many Mansions
TTITLE12=Georgia Lullaby
EXTD=
EXTT0=
EXTT1=
EXTT2=
EXTT3=
EXTT4=
EXTT5=
EXTT6=
EXTT7=
EXTT8=
EXTT9=
EXTT10=
EXTT11=
EXTT12=
PLAYORDER=
